<?xml version="1.0" standalone="no"?>
<!DOCTYPE svg PUBLIC "-//W3C//DTD SVG 20010904//EN"
 "http://www.w3.org/TR/2001/REC-SVG-20010904/DTD/svg10.dtd">
<svg version="1.0" xmlns="http://www.w3.org/2000/svg"
 width="475.000000pt" height="475.000000pt" viewBox="0 0 475.000000 475.000000"
 preserveAspectRatio="xMidYMid meet">

<g transform="translate(0.000000,475.000000) scale(0.100000,-0.100000)"
fill="#000000" stroke="none">
<path d="M2530 3528 c0 -21 4 -38 9 -38 19 0 22 20 7 47 l-15 28 -1 -37z"/>
<path d="M2173 3482 c-23 -37 -39 -69 -37 -71 2 -3 23 15 45 39 31 33 39 50
37 71 -3 27 -6 24 -45 -39z"/>
<path d="M2088 3338 c-20 -35 -34 -65 -32 -67 7 -7 34 21 34 35 0 8 9 23 20
34 16 16 29 60 17 60 -1 0 -19 -28 -39 -62z"/>
<path d="M3060 3261 c0 -6 4 -13 10 -16 6 -3 7 1 4 9 -7 18 -14 21 -14 7z"/>
<path d="M2031 3242 c-7 -13 -11 -26 -8 -28 8 -8 29 25 25 38 -3 8 -9 4 -17
-10z"/>
<path d="M1809 2867 c-108 -183 -195 -334 -193 -336 8 -8 34 23 34 40 0 11 5
19 10 19 6 0 16 12 23 28 6 15 20 36 29 46 10 11 18 26 18 33 0 8 9 23 20 35
11 12 20 29 20 37 0 9 9 22 20 29 11 7 20 19 20 28 0 8 7 22 15 30 8 9 18 27
22 42 3 15 15 33 25 40 10 7 18 22 18 33 0 10 4 19 9 19 5 0 13 9 16 20 3 11
12 26 18 33 17 18 37 55 37 67 0 5 9 19 20 30 16 16 29 61 18 60 -2 -1 -91
-150 -199 -333z"/>
<path d="M2524 2995 c0 -99 2 -138 3 -87 2 51 2 132 0 180 -1 48 -3 6 -3 -93z"/>
<path d="M3311 2833 c7 -12 15 -20 18 -17 3 2 -3 12 -13 22 -17 16 -18 16 -5
-5z"/>
<path d="M2636 2627 c3 -10 9 -15 12 -12 3 3 0 11 -7 18 -10 9 -11 8 -5 -6z"/>
<path d="M1423 2217 c-99 -166 -218 -365 -264 -442 -45 -77 -89 -150 -97 -162
-9 -15 -10 -23 -3 -23 6 0 17 12 24 28 6 15 20 33 29 40 10 7 18 22 18 33 0
10 5 19 10 19 6 0 16 12 23 28 6 15 18 33 25 41 7 7 16 26 19 42 3 16 10 29
14 29 5 0 15 12 22 28 6 15 17 33 24 40 7 7 16 25 20 40 3 15 15 33 25 40 10
7 18 22 18 33 0 10 4 19 8 19 5 0 15 12 23 28 8 15 20 33 26 40 7 7 16 25 20
40 3 15 15 33 25 40 10 7 18 22 18 33 0 10 5 19 10 19 6 0 16 12 23 28 6 15
17 33 24 40 7 7 16 25 19 39 4 14 15 34 25 44 11 11 19 26 19 34 0 8 3 15 8
15 9 0 36 59 30 65 -2 3 -86 -131 -185 -298z"/>
<path d="M2711 2493 c7 -12 15 -20 18 -17 3 2 -3 12 -13 22 -17 16 -18 16 -5
-5z"/>
<path d="M3516 2487 c3 -10 9 -15 12 -12 3 3 0 11 -7 18 -10 9 -11 8 -5 -6z"/>
<path d="M2351 2425 c-21 -36 -11 -50 11 -15 7 11 18 20 25 20 7 0 10 7 7 15
-9 23 -20 18 -43 -20z"/>
<path d="M2751 2430 c14 -31 19 -36 19 -24 0 6 -7 19 -16 30 -14 18 -14 18 -3
-6z"/>
<path d="M3550 2430 c6 -11 13 -20 16 -20 2 0 0 9 -6 20 -6 11 -13 20 -16 20
-2 0 0 -9 6 -20z"/>
<path d="M2288 2315 c-20 -36 -33 -65 -29 -65 12 0 31 23 31 38 0 8 9 21 21
31 13 10 20 25 17 39 -2 17 -10 9 -40 -43z"/>
<path d="M2796 2347 c3 -10 9 -15 12 -12 3 3 0 11 -7 18 -10 9 -11 8 -5 -6z"/>
<path d="M2169 2107 c-42 -73 -75 -134 -73 -136 8 -8 34 23 34 40 0 11 5 19
10 19 6 0 16 12 23 28 6 15 20 36 29 46 10 11 18 28 18 39 0 10 9 26 21 36 13
10 20 25 17 38 -2 16 -24 -14 -79 -110z"/>
<path d="M2990 2010 c6 -11 13 -20 16 -20 2 0 0 9 -6 20 -6 11 -13 20 -16 20
-2 0 0 -9 6 -20z"/>
<path d="M1988 1798 c-53 -90 -94 -165 -92 -167 7 -8 34 22 34 38 0 9 9 22 20
29 11 7 20 19 20 28 0 8 9 24 20 36 11 12 20 31 20 42 0 12 9 27 20 34 11 7
20 19 20 28 0 8 9 24 20 36 17 18 28 58 17 58 -2 0 -47 -73 -99 -162z"/>
<path d="M3076 1867 c3 -10 9 -15 12 -12 3 3 0 11 -7 18 -10 9 -11 8 -5 -6z"/>
<path d="M3120 1796 c0 -2 8 -10 18 -17 15 -13 16 -12 3 4 -13 16 -21 21 -21
13z"/>
<path d="M1859 1583 c-18 -29 -72 -68 -225 -163 -396 -247 -621 -385 -724
-447 -90 -55 -100 -63 -73 -63 17 0 36 7 43 15 7 8 18 15 26 15 7 0 17 6 21
13 4 7 41 33 81 57 41 25 88 54 105 64 18 11 76 48 129 83 54 35 101 63 104
63 4 0 21 11 38 24 17 13 51 33 76 46 25 12 81 46 125 75 80 52 127 81 195
120 47 27 110 93 110 116 0 26 -3 24 -31 -18z"/>
<path d="M1032 1559 c-7 -11 -11 -23 -9 -25 7 -7 29 24 25 36 -2 6 -9 1 -16
-11z"/>
<path d="M955 1434 c-64 -109 -63 -108 -21 -83 30 18 36 27 36 55 0 21 8 42
20 54 16 16 29 62 18 60 -2 -1 -25 -39 -53 -86z"/>
<path d="M2957 1509 c7 -7 15 -10 18 -7 3 3 -2 9 -12 12 -14 6 -15 5 -6 -5z"/>
<path d="M2990 1490 c0 -5 5 -10 11 -10 5 0 7 5 4 10 -3 6 -8 10 -11 10 -2 0
-4 -4 -4 -10z"/>
<path d="M3080 1432 c19 -17 39 -31 43 -32 5 0 28 -13 52 -30 24 -16 46 -30
50 -30 4 0 25 -13 48 -29 49 -32 87 -54 87 -47 0 3 -249 161 -299 190 -9 4 0
-5 19 -22z"/>
<path d="M3821 1361 c-11 -7 -9 -11 8 -20 21 -12 27 -6 13 16 -5 7 -13 9 -21
4z"/>
<path d="M3400 1237 c0 -6 78 -57 87 -57 4 0 3 4 -2 8 -16 14 -85 54 -85 49z"/>
<path d="M3567 1129 c7 -7 15 -10 18 -7 3 3 -2 9 -12 12 -14 6 -15 5 -6 -5z"/>
<path d="M3687 1052 c35 -30 113 -75 120 -68 2 2 -31 25 -74 50 -57 34 -69 39
-46 18z"/>
<path d="M3904 926 c11 -9 24 -16 30 -16 12 0 7 5 -24 19 -24 11 -24 11 -6 -3z"/>
<path d="M4498 777 c-6 -70 -44 -130 -103 -161 l-40 -21 -1987 0 c-1092 0
-1984 -3 -1982 -7 3 -5 902 -8 1997 -8 1878 0 1993 1 2018 18 46 30 89 76 89
94 0 10 4 18 9 18 14 0 23 72 13 100 -8 21 -10 16 -14 -33z"/>
<path d="M347 609 c7 -7 15 -10 18 -7 3 3 -2 9 -12 12 -14 6 -15 5 -6 -5z"/>
</g>
</svg>
