{
  "asset": { "version": "2.0" },
  "scenes": [{ "nodes": [0] }],
  "nodes": [
    {
      "name": "Among Us",
      "translation": [0, 0, 0],
      "rotation": [0, 0, 0, 1],
      "scale": [1, 1, 1],
      "children": [1, 2]
    },
    {
      "name": "Body",
      "translation": [0, 0, 0],
      "rotation": [0, 0, 0, 1],
      "scale": [1, 0.8, 1],
      "mesh": 0,
      "children": [3, 4, 5]
    },
    {
      "name": "Bag",
      "translation": [0, -0.1, -1.35],
      "rotation": [0, 0, 0, 1],
      "scale": [1, 1.4000000000000001, 0.7000000000000001],
      "mesh": 1
    },
    {
      "name": "Eye",
      "translation": [0, 0.9, 1],
      "rotation": [0, 0, 0.6997160753466035, 0.7144210340559314],
      "scale": [0.45, 0.3, 0.1],
      "mesh": 2
    },
    {
      "name": "Left Foot",
      "translation": [-0.5, -1.9000000000000001, 0],
      "rotation": [0, 0, 0, 1],
      "scale": [0.35, 0.5, 0.30000000000000004],
      "mesh": 3
    },
    {
      "name": "Right Foot",
      "translation": [0.4, -1.9000000000000001, 0],
      "rotation": [0, 0, 0, 1],
      "scale": [0.35, 0.5, 0.30000000000000004],
      "mesh": 4
    }
  ],
  "meshes": [
    {
      "primitives": [
        { "attributes": { "POSITION": 0, "NORMAL": 1 }, "indices": 2 }
      ]
    },
    { "primitives": [{ "attributes": { "POSITION": 3, "NORMAL": 4 } }] },
    {
      "primitives": [
        { "attributes": { "POSITION": 5, "NORMAL": 6 }, "indices": 7 }
      ]
    },
    {
      "primitives": [
        { "attributes": { "POSITION": 8, "NORMAL": 9 }, "indices": 10 }
      ]
    },
    {
      "primitives": [
        { "attributes": { "POSITION": 11, "NORMAL": 12 }, "indices": 13 }
      ]
    }
  ],
  "accessors": [
    {
      "bufferView": 0,
      "componentType": 5126,
      "count": 1683,
      "type": "VEC3",
      "max": [1, 2, 1],
      "min": [-1, -2, -1]
    },
    {
      "bufferView": 1,
      "componentType": 5126,
      "count": 1683,
      "type": "VEC3",
      "max": [1, 1, 1],
      "min": [-1, -1, -1]
    },
    {
      "bufferView": 2,
      "componentType": 5123,
      "count": 9216,
      "type": "SCALAR",
      "max": [1682],
      "min": [0]
    },
    {
      "bufferView": 3,
      "componentType": 5126,
      "count": 36,
      "type": "VEC3",
      "max": [0.5, 0.5, 0.5],
      "min": [-0.5, -0.5, -0.5]
    },
    {
      "bufferView": 4,
      "componentType": 5126,
      "count": 36,
      "type": "VEC3",
      "max": [1, 1, 1],
      "min": [-1, -1, -1]
    },
    {
      "bufferView": 5,
      "componentType": 5126,
      "count": 1683,
      "type": "VEC3",
      "max": [1, 2, 1],
      "min": [-1, -2, -1]
    },
    {
      "bufferView": 6,
      "componentType": 5126,
      "count": 1683,
      "type": "VEC3",
      "max": [1, 1, 1],
      "min": [-1, -1, -1]
    },
    {
      "bufferView": 7,
      "componentType": 5123,
      "count": 9216,
      "type": "SCALAR",
      "max": [1682],
      "min": [0]
    },
    {
      "bufferView": 8,
      "componentType": 5126,
      "count": 1683,
      "type": "VEC3",
      "max": [1, 2, 1],
      "min": [-1, -2, -1]
    },
    {
      "bufferView": 9,
      "componentType": 5126,
      "count": 1683,
      "type": "VEC3",
      "max": [1, 1, 1],
      "min": [-1, -1, -1]
    },
    {
      "bufferView": 10,
      "componentType": 5123,
      "count": 9216,
      "type": "SCALAR",
      "max": [1682],
      "min": [0]
    },
    {
      "bufferView": 11,
      "componentType": 5126,
      "count": 1683,
      "type": "VEC3",
      "max": [1, 2, 1],
      "min": [-1, -2, -1]
    },
    {
      "bufferView": 12,
      "componentType": 5126,
      "count": 1683,
      "type": "VEC3",
      "max": [1, 1, 1],
      "min": [-1, -1, -1]
    },
    {
      "bufferView": 13,
      "componentType": 5123,
      "count": 9216,
      "type": "SCALAR",
      "max": [1682],
      "min": [0]
    }
  ],
  "bufferViews": [
    { "buffer": 0, "byteOffset": 0, "byteLength": 20196, "target": 34962 },
    { "buffer": 0, "byteOffset": 20196, "byteLength": 20196, "target": 34962 },
    { "buffer": 0, "byteOffset": 40392, "byteLength": 18432, "target": 34963 },
    { "buffer": 0, "byteOffset": 58824, "byteLength": 432, "target": 34962 },
    { "buffer": 0, "byteOffset": 59256, "byteLength": 432, "target": 34962 },
    { "buffer": 0, "byteOffset": 59688, "byteLength": 20196, "target": 34962 },
    { "buffer": 0, "byteOffset": 79884, "byteLength": 20196, "target": 34962 },
    { "buffer": 0, "byteOffset": 100080, "byteLength": 18432, "target": 34963 },
    { "buffer": 0, "byteOffset": 118512, "byteLength": 20196, "target": 34962 },
    { "buffer": 0, "byteOffset": 138708, "byteLength": 20196, "target": 34962 },
    { "buffer": 0, "byteOffset": 158904, "byteLength": 18432, "target": 34963 },
    { "buffer": 0, "byteOffset": 177336, "byteLength": 20196, "target": 34962 },
    { "buffer": 0, "byteOffset": 197532, "byteLength": 20196, "target": 34962 },
    { "buffer": 0, "byteOffset": 217728, "byteLength": 18432, "target": 34963 }
  ],
  "buffers": [
    {
      "byteLength": 236160,
      "uri": "data:application/octet-stream;base64,"
    }
  ]
}
