{
  "asset": { "version": "2.0" },
  "scenes": [{ "nodes": [0] }],
  "nodes": [
    {
      "name": "Batman ",
      "translation": [0, -0.8, 0],
      "rotation": [-0.706825181105366, 0, 0, 0.7073882691671998],
      "scale": [1, 1, 1],
      "children": [1, 2, 3, 4, 5, 6, 7, 8, 9]
    },
    {
      "name": "Object_2",
      "translation": [0, 0, 0],
      "rotation": [0, 0, 0, 1],
      "scale": [1, 1, 1],
      "mesh": 0
    },
    {
      "name": "Object_3",
      "translation": [0, 0, 0],
      "rotation": [0, 0, 0, 1],
      "scale": [1, 1, 1],
      "mesh": 1
    },
    {
      "name": "Object_4",
      "translation": [0, 0, 0],
      "rotation": [0, 0, 0, 1],
      "scale": [1, 1, 1],
      "mesh": 2
    },
    {
      "name": "Object_5",
      "translation": [0, 0, 0],
      "rotation": [0, 0, 0, 1],
      "scale": [1, 1, 1],
      "mesh": 3
    },
    {
      "name": "Object_6",
      "translation": [0, 0, 0],
      "rotation": [0, 0, 0, 1],
      "scale": [1, 1, 1],
      "mesh": 4
    },
    {
      "name": "Object_7",
      "translation": [0, 0, 0],
      "rotation": [0, 0, 0, 1],
      "scale": [1, 1, 1],
      "mesh": 5
    },
    {
      "name": "Object_8",
      "translation": [0, 0, 0],
      "rotation": [0, 0, 0, 1],
      "scale": [1, 1, 1],
      "mesh": 6
    },
    {
      "name": "Object_9",
      "translation": [0, 0, 0],
      "rotation": [0, 0, 0, 1],
      "scale": [1, 1, 1],
      "mesh": 7
    },
    {
      "name": "Object_10",
      "translation": [0, 0, 0],
      "rotation": [0, 0, 0, 1],
      "scale": [1, 1, 1],
      "mesh": 8
    }
  ],
  "meshes": [
    {
      "primitives": [
        { "attributes": { "POSITION": 0, "NORMAL": 1 }, "indices": 2 }
      ]
    },
    {
      "primitives": [
        { "attributes": { "POSITION": 3, "NORMAL": 4 }, "indices": 5 }
      ]
    },
    {
      "primitives": [
        { "attributes": { "POSITION": 6, "NORMAL": 7 }, "indices": 8 }
      ]
    },
    {
      "primitives": [
        { "attributes": { "POSITION": 9, "NORMAL": 10 }, "indices": 11 }
      ]
    },
    {
      "primitives": [
        { "attributes": { "POSITION": 12, "NORMAL": 13 }, "indices": 14 }
      ]
    },
    {
      "primitives": [
        { "attributes": { "POSITION": 15, "NORMAL": 16 }, "indices": 17 }
      ]
    },
    {
      "primitives": [
        { "attributes": { "POSITION": 18, "NORMAL": 19 }, "indices": 20 }
      ]
    },
    {
      "primitives": [
        { "attributes": { "POSITION": 21, "NORMAL": 22 }, "indices": 23 }
      ]
    },
    {
      "primitives": [
        { "attributes": { "POSITION": 24, "NORMAL": 25 }, "indices": 26 }
      ]
    }
  ],
  "accessors": [
    {
      "bufferView": 0,
      "componentType": 5126,
      "count": 673,
      "type": "VEC3",
      "max": [0.7453091740608215, 0.5902349948883057, 1.6551740169525146],
      "min": [-0.7453091740608215, -0.10551880300045013, -0.13595150411128998]
    },
    {
      "bufferView": 1,
      "componentType": 5126,
      "count": 673,
      "type": "VEC3",
      "max": [0.8049156665802002, 0.9704326391220093, 0.9990710616111755],
      "min": [-0.7058543562889099, -0.8364730477333069, 0.11246181279420853]
    },
    {
      "bufferView": 2,
      "componentType": 5123,
      "count": 3519,
      "type": "SCALAR",
      "max": [672],
      "min": [0]
    },
    {
      "bufferView": 3,
      "componentType": 5126,
      "count": 527,
      "type": "VEC3",
      "max": [0.691455602645874, 0.6333270072937012, 1.6551740169525146],
      "min": [-0.46284759044647217, -0.10551880300045013, -0.1299508959054947]
    },
    {
      "bufferView": 4,
      "componentType": 5126,
      "count": 527,
      "type": "VEC3",
      "max": [0.7058543562889099, 0.9906681180000305, 0.9990710616111755],
      "min": [-0.8049156665802002, -0.8364730477333069, 0.11246181279420853]
    },
    {
      "bufferView": 5,
      "componentType": 5123,
      "count": 2661,
      "type": "SCALAR",
      "max": [526],
      "min": [0]
    },
    {
      "bufferView": 6,
      "componentType": 5126,
      "count": 150,
      "type": "VEC3",
      "max": [0.7014002203941345, 0.5188900232315063, 1.6269550323486328],
      "min": [-0.16031549870967865, -0.10326839983463287, -0.12959140539169312]
    },
    {
      "bufferView": 7,
      "componentType": 5126,
      "count": 150,
      "type": "VEC3",
      "max": [0.5756489634513855, 0.9473783373832703, 0.8569575548171997],
      "min": [-0.21104083955287933, -0.7159433960914612, 0.1639479249715805]
    },
    {
      "bufferView": 8,
      "componentType": 5123,
      "count": 570,
      "type": "SCALAR",
      "max": [149],
      "min": [0]
    },
    {
      "bufferView": 9,
      "componentType": 5126,
      "count": 758,
      "type": "VEC3",
      "max": [0.033926401287317276, -0.050565458834171295, 1.7730380296707153],
      "min": [-0.0339202806353569, -0.11166489869356155, 1.73922598361969]
    },
    {
      "bufferView": 10,
      "componentType": 5126,
      "count": 758,
      "type": "VEC3",
      "max": [0.998157799243927, 0.8592961430549622, 0.9998806715011597],
      "min": [-0.9981687664985657, -0.9992462992668152, -0.99922114610672]
    },
    {
      "bufferView": 11,
      "componentType": 5123,
      "count": 4302,
      "type": "SCALAR",
      "max": [757],
      "min": [0]
    },
    {
      "bufferView": 12,
      "componentType": 5126,
      "count": 1040,
      "type": "VEC3",
      "max": [0.06692788004875183, -0.04421072080731392, 1.8294529914855957],
      "min": [-0.0669381394982338, -0.13506339490413666, 1.700788974761963]
    },
    {
      "bufferView": 13,
      "componentType": 5126,
      "count": 1040,
      "type": "VEC3",
      "max": [0.9989948272705078, 0.9133082032203674, 0.9981850981712341],
      "min": [-0.9989379048347473, -0.9998372793197632, -0.9999582171440125]
    },
    {
      "bufferView": 14,
      "componentType": 5123,
      "count": 5358,
      "type": "SCALAR",
      "max": [1039],
      "min": [0]
    },
    {
      "bufferView": 15,
      "componentType": 5126,
      "count": 178,
      "type": "VEC3",
      "max": [0.04587816074490547, -0.08617374300956726, 1.8333560228347778],
      "min": [-0.045833319425582886, -0.10084740072488785, 1.8046430349349976]
    },
    {
      "bufferView": 16,
      "componentType": 5126,
      "count": 178,
      "type": "VEC3",
      "max": [0.9791545271873474, -0.192058727145195, 0.9786973595619202],
      "min": [-0.9791306853294373, -1, -0.9790374636650085]
    },
    {
      "bufferView": 17,
      "componentType": 5123,
      "count": 960,
      "type": "SCALAR",
      "max": [177],
      "min": [0]
    },
    {
      "bufferView": 18,
      "componentType": 5126,
      "count": 2201,
      "type": "VEC3",
      "max": [0.1907763034105301, 0.16303710639476776, 2.014375925064087],
      "min": [-0.19077709317207336, -0.1429446041584015, 1.5708400011062622]
    },
    {
      "bufferView": 19,
      "componentType": 5126,
      "count": 2201,
      "type": "VEC3",
      "max": [0.9998370409011841, 0.9996148347854614, 0.9988382458686829],
      "min": [-0.9998373985290527, -0.9992737770080566, -0.9997258186340332]
    },
    {
      "bufferView": 20,
      "componentType": 5123,
      "count": 11277,
      "type": "SCALAR",
      "max": [2200],
      "min": [0]
    },
    {
      "bufferView": 21,
      "componentType": 5126,
      "count": 4769,
      "type": "VEC3",
      "max": [0.271670401096344, 0.16667479276657104, 1.253514051437378],
      "min": [-0.2716718912124634, -0.18431180715560913, -0.015389639884233475]
    },
    {
      "bufferView": 22,
      "componentType": 5126,
      "count": 4769,
      "type": "VEC3",
      "max": [0.9998586177825928, 0.999998927116394, 0.9999179244041443],
      "min": [-0.9998586177825928, -0.9999179244041443, -0.999911367893219]
    },
    {
      "bufferView": 23,
      "componentType": 5123,
      "count": 23820,
      "type": "SCALAR",
      "max": [4768],
      "min": [0]
    },
    {
      "bufferView": 24,
      "componentType": 5126,
      "count": 3955,
      "type": "VEC3",
      "max": [0.6965399980545044, 0.16442370414733887, 1.6434849500656128],
      "min": [-0.6965398788452148, -0.2644909918308258, 1.0564839839935303]
    },
    {
      "bufferView": 25,
      "componentType": 5126,
      "count": 3955,
      "type": "VEC3",
      "max": [0.9984400272369385, 0.9999936819076538, 0.9998550415039062],
      "min": [-0.9984418153762817, -1, -0.9985178112983704]
    },
    {
      "bufferView": 26,
      "componentType": 5123,
      "count": 20028,
      "type": "SCALAR",
      "max": [3954],
      "min": [0]
    }
  ],
  "bufferViews": [
    { "buffer": 0, "byteOffset": 0, "byteLength": 8076, "target": 34962 },
    { "buffer": 0, "byteOffset": 8076, "byteLength": 8076, "target": 34962 },
    { "buffer": 0, "byteOffset": 16152, "byteLength": 7038, "target": 34963 },
    { "buffer": 0, "byteOffset": 23192, "byteLength": 6324, "target": 34962 },
    { "buffer": 0, "byteOffset": 29516, "byteLength": 6324, "target": 34962 },
    { "buffer": 0, "byteOffset": 35840, "byteLength": 5322, "target": 34963 },
    { "buffer": 0, "byteOffset": 41164, "byteLength": 1800, "target": 34962 },
    { "buffer": 0, "byteOffset": 42964, "byteLength": 1800, "target": 34962 },
    { "buffer": 0, "byteOffset": 44764, "byteLength": 1140, "target": 34963 },
    { "buffer": 0, "byteOffset": 45904, "byteLength": 9096, "target": 34962 },
    { "buffer": 0, "byteOffset": 55000, "byteLength": 9096, "target": 34962 },
    { "buffer": 0, "byteOffset": 64096, "byteLength": 8604, "target": 34963 },
    { "buffer": 0, "byteOffset": 72700, "byteLength": 12480, "target": 34962 },
    { "buffer": 0, "byteOffset": 85180, "byteLength": 12480, "target": 34962 },
    { "buffer": 0, "byteOffset": 97660, "byteLength": 10716, "target": 34963 },
    { "buffer": 0, "byteOffset": 108376, "byteLength": 2136, "target": 34962 },
    { "buffer": 0, "byteOffset": 110512, "byteLength": 2136, "target": 34962 },
    { "buffer": 0, "byteOffset": 112648, "byteLength": 1920, "target": 34963 },
    { "buffer": 0, "byteOffset": 114568, "byteLength": 26412, "target": 34962 },
    { "buffer": 0, "byteOffset": 140980, "byteLength": 26412, "target": 34962 },
    { "buffer": 0, "byteOffset": 167392, "byteLength": 22554, "target": 34963 },
    { "buffer": 0, "byteOffset": 189948, "byteLength": 57228, "target": 34962 },
    { "buffer": 0, "byteOffset": 247176, "byteLength": 57228, "target": 34962 },
    { "buffer": 0, "byteOffset": 304404, "byteLength": 47640, "target": 34963 },
    { "buffer": 0, "byteOffset": 352044, "byteLength": 47460, "target": 34962 },
    { "buffer": 0, "byteOffset": 399504, "byteLength": 47460, "target": 34962 },
    { "buffer": 0, "byteOffset": 446964, "byteLength": 40056, "target": 34963 }
  ],
  "buffers": [
    {
      "byteLength": 487020,
      "uri": "data:application/octet-stream;base64,"
    }
  ]
}
