{
  "asset": { "version": "2.0" },
  "scenes": [{ "nodes": [0] }],
  "nodes": [
    {
      "name": "CookieCutter",
      "translation": [0, 0, 0],
      "rotation": [0, 0, 0, 1],
      "scale": [1, 1, 1],
      "mesh": 0
    }
  ],
  "meshes": [
    { "primitives": [{ "attributes": { "POSITION": 0, "NORMAL": 1 } }] }
  ],
  "accessors": [
    {
      "bufferView": 0,
      "componentType": 5126,
      "count": 84,
      "type": "VEC3",
      "max": [1, 1, 0.10000000149011612],
      "min": [-1, -1, -0.10000000149011612]
    },
    {
      "bufferView": 1,
      "componentType": 5126,
      "count": 84,
      "type": "VEC3",
      "max": [1, 1, 1],
      "min": [-1, -1, -1]
    }
  ],
  "bufferViews": [
    { "buffer": 0, "byteOffset": 0, "byteLength": 1008, "target": 34962 },
    { "buffer": 0, "byteOffset": 1008, "byteLength": 1008, "target": 34962 }
  ],
  "buffers": [
    {
      "byteLength": 2016,
      "uri": "data:application/octet-stream;base64,"
    }
  ]
}
