{
  "asset": { "version": "2.0" },
  "scenes": [{ "nodes": [0] }],
  "nodes": [
    {
      "name": "HollowCube",
      "translation": [0, 0, 0],
      "rotation": [0, 0, 0, 1],
      "scale": [0.0025, 0.0025, 0.0025],
      "children": [1, 2]
    },
    {
      "name": "Lines",
      "translation": [0, 0.00004928401904180646, -366.80902099609375],
      "rotation": [0, 0, 0, 1],
      "scale": [1, 1, 1],
      "mesh": 0
    },
    {
      "name": "Vertices",
      "translation": [0, 0.00004928401904180646, -366.80902099609375],
      "rotation": [0, 0, 0, 1],
      "scale": [1, 1, 1],
      "mesh": 1
    }
  ],
  "meshes": [
    {
      "primitives": [
        { "attributes": { "POSITION": 0, "NORMAL": 1 }, "indices": 2 }
      ]
    },
    {
      "primitives": [
        { "attributes": { "POSITION": 3, "NORMAL": 4 }, "indices": 5 }
      ]
    }
  ],
  "accessors": [
    {
      "bufferView": 0,
      "componentType": 5126,
      "count": 7916,
      "type": "VEC3",
      "max": [305.7529296875, 282.4742431640625, 702.1898193359375],
      "min": [-253.84754943847656, -271.2918701171875, 79.58685302734375]
    },
    {
      "bufferView": 1,
      "componentType": 5126,
      "count": 7916,
      "type": "VEC3",
      "max": [0.999221682548523, 0.9993256330490112, 0.9994936585426331],
      "min": [-0.9998904466629028, -0.9983782172203064, -0.9998894929885864]
    },
    {
      "bufferView": 2,
      "componentType": 5123,
      "count": 25416,
      "type": "SCALAR",
      "max": [7915],
      "min": [0]
    },
    {
      "bufferView": 3,
      "componentType": 5126,
      "count": 2584,
      "type": "VEC3",
      "max": [305.1258850097656, 282.2564392089844, 701.8441162109375],
      "min": [-253.84754943847656, -271.2918701171875, 79.86983489990234]
    },
    {
      "bufferView": 4,
      "componentType": 5126,
      "count": 2584,
      "type": "VEC3",
      "max": [0.9876241087913513, 0.4986174702644348, 0.641471266746521],
      "min": [-0.9876241087913513, -0.9792717695236206, -0.9756496548652649]
    },
    {
      "bufferView": 5,
      "componentType": 5123,
      "count": 4560,
      "type": "SCALAR",
      "max": [2583],
      "min": [0]
    }
  ],
  "bufferViews": [
    { "buffer": 0, "byteOffset": 0, "byteLength": 94992, "target": 34962 },
    { "buffer": 0, "byteOffset": 94992, "byteLength": 94992, "target": 34962 },
    { "buffer": 0, "byteOffset": 189984, "byteLength": 50832, "target": 34963 },
    { "buffer": 0, "byteOffset": 240816, "byteLength": 31008, "target": 34962 },
    { "buffer": 0, "byteOffset": 271824, "byteLength": 31008, "target": 34962 },
    { "buffer": 0, "byteOffset": 302832, "byteLength": 9120, "target": 34963 }
  ],
  "buffers": [
    {
      "byteLength": 311952,
      "uri": "data:application/octet-stream;base64,"
    }
  ]
}
