{
  "asset": { "version": "2.0" },
  "scenes": [{ "nodes": [0] }],
  "nodes": [
    {
      "name": "Monster",
      "translation": [0, 0, 0],
      "rotation": [0, 0, 0, 1],
      "scale": [1, 1, 1],
      "children": [1, 2]
    },
    {
      "name": "Legs",
      "translation": [0, 0, 0],
      "rotation": [0, 0, 0, 1],
      "scale": [1, 1, 1],
      "mesh": 0
    },
    {
      "name": "Torso",
      "translation": [0, 0, 0],
      "rotation": [0, 0, 0, 1],
      "scale": [1, 1, 1],
      "mesh": 1
    }
  ],
  "meshes": [
    {
      "primitives": [
        { "attributes": { "POSITION": 0, "NORMAL": 1 }, "indices": 2 }
      ]
    },
    {
      "primitives": [
        { "attributes": { "POSITION": 3, "NORMAL": 4 }, "indices": 5 }
      ]
    }
  ],
  "accessors": [
    {
      "bufferView": 0,
      "componentType": 5126,
      "count": 18564,
      "type": "VEC3",
      "max": [0.2973969876766205, 1.1539019346237183, 0.3136879801750183],
      "min": [-0.3082199990749359, -0.011738999746739864, -0.19645799696445465]
    },
    {
      "bufferView": 1,
      "componentType": 5126,
      "count": 18564,
      "type": "VEC3",
      "max": [0.9998055696487427, 0.9911358952522278, 0.9996547102928162],
      "min": [-0.9996893405914307, -0.9999002814292908, -0.9995463490486145]
    },
    {
      "bufferView": 2,
      "componentType": 5123,
      "count": 18564,
      "type": "SCALAR",
      "max": [18563],
      "min": [0]
    },
    {
      "bufferView": 3,
      "componentType": 5126,
      "count": 59400,
      "type": "VEC3",
      "max": [0.35611799359321594, 1.7560299634933472, 0.3613699972629547],
      "min": [-0.3156399726867676, 0.7446230053901672, -0.07401400059461594]
    },
    {
      "bufferView": 4,
      "componentType": 5126,
      "count": 59400,
      "type": "VEC3",
      "max": [0.9997739791870117, 0.998565673828125, 0.9999988675117493],
      "min": [-0.9998028874397278, -0.9999575018882751, -0.9999951720237732]
    },
    {
      "bufferView": 5,
      "componentType": 5123,
      "count": 59400,
      "type": "SCALAR",
      "max": [59399],
      "min": [0]
    }
  ],
  "bufferViews": [
    { "buffer": 0, "byteOffset": 0, "byteLength": 222768, "target": 34962 },
    {
      "buffer": 0,
      "byteOffset": 222768,
      "byteLength": 222768,
      "target": 34962
    },
    { "buffer": 0, "byteOffset": 445536, "byteLength": 37128, "target": 34963 },
    {
      "buffer": 0,
      "byteOffset": 482664,
      "byteLength": 712800,
      "target": 34962
    },
    {
      "buffer": 0,
      "byteOffset": 1195464,
      "byteLength": 712800,
      "target": 34962
    },
    {
      "buffer": 0,
      "byteOffset": 1908264,
      "byteLength": 118800,
      "target": 34963
    }
  ],
  "buffers": [
    {
      "byteLength": 2027064,
      "uri": "data:application/octet-stream;base64,"
    }
  ]
}
