{
  "asset": { "version": "2.0" },
  "scenes": [{ "nodes": [0] }],
  "nodes": [
    {
      "name": "Skull",
      "translation": [0, 0, 0],
      "rotation": [0, 0, 0, 1],
      "scale": [1, 1, 1],
      "children": [1, 2]
    },
    {
      "name": "Cranium",
      "translation": [0, 0, 0],
      "rotation": [0, 0, 0, 1],
      "scale": [1, 1, 1],
      "mesh": 0
    },
    {
      "name": "Teeths",
      "translation": [0, 0, 0],
      "rotation": [0, 0, 0, 1],
      "scale": [1, 1, 1],
      "mesh": 1
    }
  ],
  "meshes": [
    {
      "primitives": [
        { "attributes": { "POSITION": 0, "NORMAL": 1 }, "indices": 2 }
      ]
    },
    {
      "primitives": [
        { "attributes": { "POSITION": 3, "NORMAL": 4 }, "indices": 5 }
      ]
    }
  ],
  "accessors": [
    {
      "bufferView": 0,
      "componentType": 5126,
      "count": 16273,
      "type": "VEC3",
      "max": [0.60760498046875, 0.7304800152778625, 1],
      "min": [-0.60760498046875, -0.7304800152778625, -1]
    },
    {
      "bufferView": 1,
      "componentType": 5126,
      "count": 16273,
      "type": "VEC3",
      "max": [0.9999971389770508, 0.999878466129303, 0.9999667406082153],
      "min": [-0.999946653842926, -0.9999499917030334, -0.9998183846473694]
    },
    {
      "bufferView": 2,
      "componentType": 5123,
      "count": 89670,
      "type": "SCALAR",
      "max": [16272],
      "min": [0]
    },
    {
      "bufferView": 3,
      "componentType": 5126,
      "count": 752,
      "type": "VEC3",
      "max": [0.2348940074443817, -0.15869200229644775, 0.8621339797973633],
      "min": [-0.19198299944400787, -0.49074798822402954, 0.5252829790115356]
    },
    {
      "bufferView": 4,
      "componentType": 5126,
      "count": 752,
      "type": "VEC3",
      "max": [0.999426543712616, 0.9987166523933411, 0.973003089427948],
      "min": [-0.9985430240631104, -0.996737539768219, -0.9918603301048279]
    },
    {
      "bufferView": 5,
      "componentType": 5123,
      "count": 3378,
      "type": "SCALAR",
      "max": [751],
      "min": [0]
    }
  ],
  "bufferViews": [
    { "buffer": 0, "byteOffset": 0, "byteLength": 195276, "target": 34962 },
    {
      "buffer": 0,
      "byteOffset": 195276,
      "byteLength": 195276,
      "target": 34962
    },
    {
      "buffer": 0,
      "byteOffset": 390552,
      "byteLength": 179340,
      "target": 34963
    },
    { "buffer": 0, "byteOffset": 569892, "byteLength": 9024, "target": 34962 },
    { "buffer": 0, "byteOffset": 578916, "byteLength": 9024, "target": 34962 },
    { "buffer": 0, "byteOffset": 587940, "byteLength": 6756, "target": 34963 }
  ],
  "buffers": [
    {
      "byteLength": 594696,
      "uri": "data:application/octet-stream;base64,"
    }
  ]
}
