{
  "asset": { "version": "2.0" },
  "scenes": [{ "nodes": [0] }],
  "nodes": [
    {
      "name": "Tetrakis",
      "translation": [0, 0, 0],
      "rotation": [-0.04158066243329049, 0, 0, -0.9991351502732795],
      "scale": [1, 1, 1],
      "mesh": 0
    }
  ],
  "meshes": [
    { "primitives": [{ "attributes": { "POSITION": 0, "NORMAL": 1 } }] }
  ],
  "accessors": [
    {
      "bufferView": 0,
      "componentType": 5126,
      "count": 1872,
      "type": "VEC3",
      "max": [1.5353553295135498, 1.5353553295135498, 1.0499999523162842],
      "min": [-1.5353553295135498, -1.5353553295135498, -1.0499999523162842]
    },
    {
      "bufferView": 1,
      "componentType": 5126,
      "count": 1872,
      "type": "VEC3",
      "max": [1, 1, 1],
      "min": [-1, -1, -1]
    }
  ],
  "bufferViews": [
    { "buffer": 0, "byteOffset": 0, "byteLength": 22464, "target": 34962 },
    { "buffer": 0, "byteOffset": 22464, "byteLength": 22464, "target": 34962 }
  ],
  "buffers": [
    {
      "byteLength": 44928,
      "uri": "data:application/octet-stream;base64,"
    }
  ]
}
