{
  "asset": { "version": "2.0" },
  "scenes": [{ "nodes": [0] }],
  "nodes": [
    {
      "name": "Torus",
      "translation": [0, 0, 0],
      "rotation": [0, 0, 0, 1],
      "scale": [0.25, 0.25, 0.25],
      "mesh": 0
    }
  ],
  "meshes": [
    {
      "primitives": [
        { "attributes": { "POSITION": 0, "NORMAL": 1 }, "indices": 2 }
      ]
    }
  ],
  "accessors": [
    {
      "bufferView": 0,
      "componentType": 5126,
      "count": 53645,
      "type": "VEC3",
      "max": [2.5461153984069824, 3.202956199645996, 1.484774112701416],
      "min": [-3.498255729675293, -3.2030553817749023, -1.4793550968170166]
    },
    {
      "bufferView": 1,
      "componentType": 5126,
      "count": 53645,
      "type": "VEC3",
      "max": [0.9999866485595703, 0.999994158744812, 0.999886691570282],
      "min": [-0.9999906420707703, -0.9999702572822571, -0.9999877214431763]
    },
    {
      "bufferView": 2,
      "componentType": 5123,
      "count": 168960,
      "type": "SCALAR",
      "max": [53644],
      "min": [0]
    }
  ],
  "bufferViews": [
    { "buffer": 0, "byteOffset": 0, "byteLength": 643740, "target": 34962 },
    {
      "buffer": 0,
      "byteOffset": 643740,
      "byteLength": 643740,
      "target": 34962
    },
    {
      "buffer": 0,
      "byteOffset": 1287480,
      "byteLength": 337920,
      "target": 34963
    }
  ],
  "buffers": [
    {
      "byteLength": 1625400,
      "uri": "data:application/octet-stream;base64,"
    }
  ]
}
