{
  "asset": { "version": "2.0" },
  "scenes": [{ "nodes": [0] }],
  "nodes": [
    {
      "name": "Empty",
      "translation": [0, -0.2, 0],
      "rotation": [
        -0.011093441370687194, -0.03192820403825077, -0.0019692427719491725,
        0.9994266593544282
      ],
      "scale": [1, 1, 1],
      "children": [1, 2]
    },
    {
      "name": "Cube",
      "translation": [-0.65, -0.25, 0],
      "rotation": [0, 0, 0, 1],
      "scale": [1, 1, 1],
      "mesh": 0,
      "children": [3, 4]
    },
    {
      "name": "Cube",
      "translation": [1, 0, 0],
      "rotation": [0, 0, 0, 1],
      "scale": [2.3000000000000003, 1.5, 1],
      "mesh": 1,
      "children": [5, 6]
    },
    {
      "name": "Ring",
      "translation": [0, -0.91, 0.4],
      "rotation": [0, 0, 0, 1],
      "scale": [0.4, 0.4, 0.4],
      "mesh": 2
    },
    {
      "name": "Ring",
      "translation": [0.1, -1, -0.4],
      "rotation": [0, 0, 0, 1],
      "scale": [0.4000000000000001, 0.4, 0.4],
      "mesh": 3
    },
    {
      "name": "Ring",
      "translation": [0.3, -0.785, 0.4],
      "rotation": [0, 0, 0, 1],
      "scale": [-0.17, -0.27, 0.4000000000000001],
      "mesh": 4
    },
    {
      "name": "Ring",
      "translation": [
        0.30000000000000004, -0.6000000000000001, -0.30000000000000004
      ],
      "rotation": [
        -0.003517179048182934, 0.015369592866139314, -0.0018059321170430496,
        0.9998740639079808
      ],
      "scale": [-0.17000000000000004, -0.28, 0.4],
      "mesh": 5
    }
  ],
  "meshes": [
    { "primitives": [{ "attributes": { "POSITION": 0, "NORMAL": 1 } }] },
    { "primitives": [{ "attributes": { "POSITION": 2, "NORMAL": 3 } }] },
    { "primitives": [{ "attributes": { "POSITION": 4, "NORMAL": 5 } }] },
    { "primitives": [{ "attributes": { "POSITION": 6, "NORMAL": 7 } }] },
    { "primitives": [{ "attributes": { "POSITION": 8, "NORMAL": 9 } }] },
    { "primitives": [{ "attributes": { "POSITION": 10, "NORMAL": 11 } }] }
  ],
  "accessors": [
    {
      "bufferView": 0,
      "componentType": 5126,
      "count": 36,
      "type": "VEC3",
      "max": [0.5, 0.5, 0.5],
      "min": [-0.5, -0.5, -0.5]
    },
    {
      "bufferView": 1,
      "componentType": 5126,
      "count": 36,
      "type": "VEC3",
      "max": [1, 1, 1],
      "min": [-1, -1, -1]
    },
    {
      "bufferView": 2,
      "componentType": 5126,
      "count": 36,
      "type": "VEC3",
      "max": [0.5, 0.5, 0.5],
      "min": [-0.5, -0.5, -0.5]
    },
    {
      "bufferView": 3,
      "componentType": 5126,
      "count": 36,
      "type": "VEC3",
      "max": [1, 1, 1],
      "min": [-1, -1, -1]
    },
    {
      "bufferView": 4,
      "componentType": 5126,
      "count": 2400,
      "type": "VEC3",
      "max": [1, 1, 0.10000000149011612],
      "min": [-1, -1, -0.10000000149011612]
    },
    {
      "bufferView": 5,
      "componentType": 5126,
      "count": 2400,
      "type": "VEC3",
      "max": [1, 1, 1],
      "min": [-1, -1, -1]
    },
    {
      "bufferView": 6,
      "componentType": 5126,
      "count": 2400,
      "type": "VEC3",
      "max": [1, 1, 0.10000000149011612],
      "min": [-1, -1, -0.10000000149011612]
    },
    {
      "bufferView": 7,
      "componentType": 5126,
      "count": 2400,
      "type": "VEC3",
      "max": [1, 1, 1],
      "min": [-1, -1, -1]
    },
    {
      "bufferView": 8,
      "componentType": 5126,
      "count": 2400,
      "type": "VEC3",
      "max": [1, 1, 0.10000000149011612],
      "min": [-1, -1, -0.10000000149011612]
    },
    {
      "bufferView": 9,
      "componentType": 5126,
      "count": 2400,
      "type": "VEC3",
      "max": [1, 1, 1],
      "min": [-1, -1, -1]
    },
    {
      "bufferView": 10,
      "componentType": 5126,
      "count": 2400,
      "type": "VEC3",
      "max": [1, 1, 0.10000000149011612],
      "min": [-1, -1, -0.10000000149011612]
    },
    {
      "bufferView": 11,
      "componentType": 5126,
      "count": 2400,
      "type": "VEC3",
      "max": [1, 1, 1],
      "min": [-1, -1, -1]
    }
  ],
  "bufferViews": [
    { "buffer": 0, "byteOffset": 0, "byteLength": 432, "target": 34962 },
    { "buffer": 0, "byteOffset": 432, "byteLength": 432, "target": 34962 },
    { "buffer": 0, "byteOffset": 864, "byteLength": 432, "target": 34962 },
    { "buffer": 0, "byteOffset": 1296, "byteLength": 432, "target": 34962 },
    { "buffer": 0, "byteOffset": 1728, "byteLength": 28800, "target": 34962 },
    { "buffer": 0, "byteOffset": 30528, "byteLength": 28800, "target": 34962 },
    { "buffer": 0, "byteOffset": 59328, "byteLength": 28800, "target": 34962 },
    { "buffer": 0, "byteOffset": 88128, "byteLength": 28800, "target": 34962 },
    { "buffer": 0, "byteOffset": 116928, "byteLength": 28800, "target": 34962 },
    { "buffer": 0, "byteOffset": 145728, "byteLength": 28800, "target": 34962 },
    { "buffer": 0, "byteOffset": 174528, "byteLength": 28800, "target": 34962 },
    { "buffer": 0, "byteOffset": 203328, "byteLength": 28800, "target": 34962 }
  ],
  "buffers": [
    {
      "byteLength": 232128,
      "uri": "data:application/octet-stream;base64,"
    }
  ]
}
